<?xml version="1.0" encoding="utf-8"?>
<!-- Generator: Adobe Illustrator 26.5.0, SVG Export Plug-In . SVG Version: 6.00 Build 0)  -->
<svg version="1.1" id="Layer_1" xmlns="http://www.w3.org/2000/svg" xmlns:xlink="http://www.w3.org/1999/xlink" x="0px" y="0px"
	 viewBox="0 0 288 100" style="enable-background:new 0 0 288 100;" xml:space="preserve">
<style type="text/css">
	.st0{fill:#FFFFFF;}
</style>
<g>
	<rect x="1.44" y="21.14" class="st0" width="284.91" height="58.6"/>
	<path d="M285.85,21.64v57.6H1.94v-57.6H285.85 M286.85,20.64H0.94v59.6h285.91V20.64L286.85,20.64z"/>
</g>
<g>
	<g>
		<path d="M9.86,67.65c10.08,5.69,21.62,0.76,30.07-5.66c9.21-6.99,15.98-16.46,22.44-25.92c-1.69,0.69-3.39,1.38-5.08,2.07
			c5.06,1.52,10.12,3.04,15.18,4.56c4.42,1.33,10.2,2.18,14.04,4.9c4.19,2.97,1.82,9.44,0.69,13.56c-0.64,2.32-0.47,3.13-2.88,2.31
			c-2.63-0.89-5.11-2.35-7.48-3.77c-4.97-2.99-9.5,4.78-4.54,7.77c5.25,3.16,13.64,8.31,19.46,3.76c4.81-3.75,6.38-14.44,6.1-20.13
			c-0.36-7.39-5.87-11.49-12.33-13.82c-8.44-3.04-17.26-5.24-25.85-7.82c-2.01-0.6-3.97,0.43-5.08,2.07
			c-4.92,7.2-9.99,14.37-16.45,20.29c-5.7,5.23-15.82,12.53-23.74,8.05C9.35,57.03,4.81,64.8,9.86,67.65L9.86,67.65z"/>
	</g>
</g>
<g>
	<g>
		<path d="M106.05,70.58c5.79,0,5.8-9,0-9C100.26,61.58,100.25,70.58,106.05,70.58L106.05,70.58z"/>
	</g>
</g>
<g>
	<g>
		<path d="M187.44,31.71c-11.71-3.04-24.7-3.21-36.15,1.07c-8.83,3.3-17.77,10.06-18.19,20.32c-0.49,11.91,9.96,14.86,19.71,14.83
			c14.45-0.05,28.89-0.88,43.26-2.33c5.71-0.58,5.77-9.58,0-9c-9.8,0.99-19.63,1.7-29.48,2.05c-5.25,0.19-10.51,0.35-15.76,0.28
			c-3.6-0.04-8.01,0.1-8.74-4.38c-1.27-7.81,9.13-12.54,14.94-14.18c9.19-2.58,18.8-2.36,28,0.02
			C190.66,41.85,193.05,33.17,187.44,31.71L187.44,31.71z"/>
	</g>
</g>
<g>
	<g>
		<path d="M148.3,47.03c-2.27,0.53-4.53,1.06-6.8,1.59c-2.29,0.54-3.87,3.29-3.14,5.54c0.78,2.4,3.08,3.72,5.54,3.14
			c2.27-0.53,4.53-1.06,6.8-1.59c2.29-0.54,3.87-3.29,3.14-5.54C153.06,47.78,150.75,46.45,148.3,47.03L148.3,47.03z"/>
	</g>
</g>
<g>
	<g>
		<path d="M202.15,55.6c0.18,1.57,0.36,3.14,0.54,4.71c0.14,1.23,0.41,2.27,1.32,3.18c0.78,0.78,2.06,1.37,3.18,1.32
			c2.21-0.1,4.79-2,4.5-4.5c-0.18-1.57-0.36-3.14-0.54-4.71c-0.14-1.23-0.41-2.27-1.32-3.18c-0.78-0.78-2.06-1.37-3.18-1.32
			C204.44,51.2,201.86,53.09,202.15,55.6L202.15,55.6z"/>
	</g>
</g>
<g>
	<g>
		<path d="M205,46.5c5.79,0,5.8-9,0-9C199.21,37.5,199.2,46.5,205,46.5L205,46.5z"/>
	</g>
</g>
<g>
	<g>
		<path d="M252.18,31.08c4.45,14.06,8.57,28.22,12.39,42.46c1.5,5.59,10.18,3.22,8.68-2.39c-3.81-14.25-7.94-28.4-12.39-42.46
			C259.12,23.19,250.42,25.54,252.18,31.08L252.18,31.08z"/>
	</g>
</g>
<g>
	<g>
		<path d="M265.92,50.69c-12.47-5.57-38.06-8.41-41.41,10.17c-1.3,7.19,3.16,13.65,10.56,14.04c9.91,0.52,20.6-1.61,30.28-3.54
			c5.68-1.13,3.27-9.8-2.39-8.68c-5.67,1.13-11.36,2.03-17.11,2.58c-3.49,0.34-13.77,3-12.4-3.2c2.35-10.68,21.5-6.48,27.93-3.6
			C266.62,60.81,271.21,53.06,265.92,50.69L265.92,50.69z"/>
	</g>
</g>
</svg>
